<?xml version="1.0" encoding="utf-8"?>
<!-- Generator: Adobe Illustrator 19.0.0, SVG Export Plug-In . SVG Version: 6.00 Build 0)  -->
<svg xmlns="http://www.w3.org/2000/svg" xmlns:xlink="http://www.w3.org/1999/xlink" version="1.1" id="Layer_1" x="0px" y="0px" viewBox="0 0 1600 1200" style="enable-background:new 0 0 1600 1200;" xml:space="preserve">
<style type="text/css">
	.st0{fill:#FFFFFF;}
	.st1{fill:#BCEBF5;}
	.st2{fill:#FF7D26;}
	.st3{fill:#1A1A1A;}
	.st4{fill:#FFE278;}
	.st5{fill:#1F2224;}
	.st6{fill:#FF6969;}
	.st7{fill:#FFE379;}
	.st8{fill:#A3B580;}
	.st9{fill:#E7EEF0;}
	.st10{fill:#F5BF3E;}
	.st11{fill:#BEC3C4;}
	.st12{fill:#FFE0C4;}
	.st13{fill:#EDA1A1;}
	.st14{fill:#212121;}
	.st15{fill:#242D36;}
	.st16{fill:#F2A5A5;}
	.st17{fill:#DC7676;}
	.st18{fill:#EB8484;}
	.st19{fill:#8FAAB0;}
</style>

<g id="XMLID_21_">
	<path id="XMLID_87_" class="st1" d="M1333.4,870.4c0,4.7-0.2,9.4-0.7,14c-1.1,11.1-3.4,21.9-6.8,32.2h-276   c-3.4-10.3-5.8-21-6.8-32.2c-0.5-4.6-0.7-9.3-0.7-14c0-80.3,65.1-145.5,145.5-145.5C1268.3,725,1333.4,790.1,1333.4,870.4z"/>
	<path id="XMLID_94_" class="st1" d="M1072.8,600c0,108.2-38.7,207.4-103.1,284.4c-9.4,11.2-19.3,22-29.7,32.2H318   c-10.4-10.2-20.3-21-29.7-32.2C224,807.4,185.3,708.2,185.3,600c0-245.1,198.7-443.8,443.8-443.8   C874.1,156.2,1072.8,354.9,1072.8,600z"/>
	<circle id="XMLID_29_" class="st1" cx="1200.2" cy="592.6" r="89.6"/>
	<circle id="XMLID_30_" class="st1" cx="1357.2" cy="691" r="57.5"/>
	<g id="XMLID_162_">
		<circle id="XMLID_4_" class="st0" cx="846.5" cy="377.2" r="17.6"/>
		<circle id="XMLID_85_" class="st0" cx="903.3" cy="377.2" r="17.6"/>
		<circle id="XMLID_86_" class="st0" cx="959.9" cy="377.2" r="17.6"/>
		<circle id="XMLID_93_" class="st0" cx="1016.1" cy="377.2" r="17.6"/>
		<circle id="XMLID_144_" class="st0" cx="1073.9" cy="377.2" r="17.6"/>
		<circle id="XMLID_156_" class="st0" cx="846.2" cy="433.9" r="17.6"/>
		<circle id="XMLID_155_" class="st0" cx="903" cy="433.9" r="17.6"/>
		<circle id="XMLID_154_" class="st0" cx="959.6" cy="433.9" r="17.6"/>
		<circle id="XMLID_153_" class="st0" cx="1015.8" cy="433.9" r="17.6"/>
		<circle id="XMLID_152_" class="st0" cx="1073.6" cy="433.9" r="17.6"/>
		<circle id="XMLID_161_" class="st0" cx="846.2" cy="490.1" r="17.6"/>
		<circle id="XMLID_160_" class="st0" cx="903" cy="490.1" r="17.6"/>
		<circle id="XMLID_159_" class="st0" cx="959.6" cy="490.1" r="17.6"/>
		<circle id="XMLID_158_" class="st0" cx="1015.8" cy="490.1" r="17.6"/>
		<circle id="XMLID_157_" class="st0" cx="1073.6" cy="490.1" r="17.6"/>
	</g>
	<g id="XMLID_163_">
		<circle id="XMLID_180_" class="st0" cx="352.1" cy="267.2" r="17.6"/>
		<circle id="XMLID_179_" class="st0" cx="352.1" cy="324" r="17.6"/>
		<circle id="XMLID_178_" class="st0" cx="352.1" cy="380.6" r="17.6"/>
		<circle id="XMLID_177_" class="st0" cx="352.1" cy="436.9" r="17.6"/>
		<circle id="XMLID_176_" class="st0" cx="352.1" cy="494.7" r="17.6"/>
		<circle id="XMLID_175_" class="st0" cx="295.5" cy="266.9" r="17.6"/>
		<circle id="XMLID_174_" class="st0" cx="295.5" cy="323.7" r="17.6"/>
		<circle id="XMLID_173_" class="st0" cx="295.5" cy="380.3" r="17.6"/>
		<circle id="XMLID_172_" class="st0" cx="295.5" cy="436.6" r="17.6"/>
		<circle id="XMLID_171_" class="st0" cx="295.5" cy="494.4" r="17.6"/>
		<circle id="XMLID_170_" class="st0" cx="239.2" cy="266.9" r="17.6"/>
		<circle id="XMLID_169_" class="st0" cx="239.2" cy="323.7" r="17.6"/>
		<circle id="XMLID_168_" class="st0" cx="239.2" cy="380.3" r="17.6"/>
		<circle id="XMLID_167_" class="st0" cx="239.2" cy="436.6" r="17.6"/>
		<circle id="XMLID_166_" class="st0" cx="239.2" cy="494.4" r="17.6"/>
	</g>
</g>
<g id="XMLID_34_">
	<g id="XMLID_262_">
		<path id="XMLID_26_" class="st2" d="M1112.1,321H891.2c10-43.3,44.8-77.1,88.7-85.6c1.4-0.3,2.8-0.5,4.2-0.7    c5.7-0.9,11.6-1.3,17.5-1.3C1055.4,233.4,1100.4,270.8,1112.1,321z"/>
		<g id="XMLID_264_">
			<rect id="XMLID_267_" x="1000.5" y="118.5" class="st3" width="2.3" height="114.9"/>
		</g>
		<path id="XMLID_22_" class="st4" d="M1068.6,321H891.2c10-43.3,44.8-77.1,88.7-85.6C1023.7,244,1058.6,277.8,1068.6,321z"/>
		<g id="XMLID_261_">
			<path id="XMLID_268_" class="st3" d="M1091.1,326.4H867.4l0.3-1.4c5.7-24.8,19.9-47.3,39.8-63.3c20.2-16.3,45.7-25.3,71.7-25.3     c26,0,51.5,9,71.7,25.3c19.9,16,34.1,38.5,39.8,63.3L1091.1,326.4z M870.3,324.1h218c-12.3-50.4-56.9-85.4-109-85.4     C927.2,238.8,882.6,273.8,870.3,324.1z"/>
		</g>
	</g>
	<g id="XMLID_5_">
		<path id="XMLID_25_" class="st2" d="M1442,406.6h-220.9c10-43.3,44.8-77.1,88.7-85.6c1.4-0.3,2.8-0.5,4.2-0.7    c5.7-0.9,11.6-1.3,17.5-1.3C1385.4,318.9,1430.4,356.4,1442,406.6z"/>
		<g id="XMLID_19_">
			<rect id="XMLID_23_" x="1330.5" y="204.1" class="st3" width="2.3" height="114.9"/>
		</g>
		<path id="XMLID_18_" class="st4" d="M1398.6,406.6h-177.4c10-43.3,44.8-77.1,88.7-85.6C1353.7,329.5,1388.5,363.3,1398.6,406.6z"/>
		<g id="XMLID_6_">
			<path id="XMLID_13_" class="st3" d="M1421.1,412h-223.8l0.3-1.4c5.7-24.8,19.9-47.3,39.8-63.3c20.2-16.3,45.7-25.3,71.7-25.3     s51.5,9,71.7,25.3c19.9,16,34.1,38.5,39.8,63.3L1421.1,412z M1200.3,409.7h218c-12.3-50.4-56.9-85.4-109-85.4     C1257.2,324.3,1212.6,359.4,1200.3,409.7z"/>
		</g>
	</g>
</g>
<g id="XMLID_2_">
	
		<ellipse id="XMLID_131_" transform="matrix(0.9821 0.1883 -0.1883 0.9821 138.6329 -64.1055)" class="st5" cx="406.8" cy="697.8" rx="7.5" ry="17.2"/>
	
		<ellipse id="XMLID_141_" transform="matrix(0.9821 0.1883 -0.1883 0.9821 136.5816 -58.9564)" class="st5" cx="378.7" cy="689.6" rx="7.5" ry="17.2"/>
	<g id="XMLID_142_">
		<path id="XMLID_145_" class="st5" d="M408,717.4c-0.2,0-0.5,0-0.7-0.1c-4.4-0.8-6.3-9.1-4.5-18.8c0.9-4.6,2.5-8.7,4.5-11.7    c2.1-3.1,4.4-4.5,6.6-4.1c2.1,0.4,3.8,2.6,4.6,6.3c0.8,3.5,0.7,8-0.1,12.5C416.6,710.7,412.2,717.4,408,717.4z M413.2,683.6    c-1.6,0-3.5,1.3-5.2,3.8c-2,2.9-3.5,6.9-4.4,11.4c-1.7,8.9,0,17.1,3.8,17.8c3.8,0.7,8.4-6.2,10.1-15.1l0,0    c0.9-4.4,0.9-8.8,0.1-12.2c-0.7-3.3-2.1-5.3-3.9-5.6C413.6,683.6,413.4,683.6,413.2,683.6z"/>
	</g>
	<g id="XMLID_143_">
		<path id="XMLID_148_" class="st5" d="M379.4,709.1c-0.2,0-0.5,0-0.7-0.1c-2.1-0.4-3.8-2.6-4.6-6.3c-0.8-3.5-0.7-8,0.1-12.5    c1.9-9.7,6.7-16.6,11.1-15.8c4.4,0.8,6.3,9.1,4.5,18.8c-0.9,4.6-2.5,8.7-4.5,11.7C383.4,707.6,381.4,709.1,379.4,709.1z     M384.6,675.3c-3.7,0-7.9,6.7-9.5,15.2c-0.9,4.4-0.9,8.8-0.1,12.2c0.7,3.3,2.1,5.3,3.9,5.6c1.8,0.3,3.8-1,5.7-3.8    c2-2.9,3.5-6.9,4.4-11.4c1.7-8.9,0-17.1-3.8-17.8C385,675.3,384.8,675.3,384.6,675.3z"/>
	</g>
	<g id="XMLID_246_">
		<g id="XMLID_245_">
			<path id="XMLID_247_" d="M1322.8,884.4h-40.7l-0.1-0.3c-1.2-3.3-30-79.9-18.9-90.5c10.4-9.9,22.2-27.6,23.3-29.3v-18.7     c-2.7-0.3-4.8-2.5-4.8-5.3c0-2.9,2.4-5.3,5.3-5.3h31c2.9,0,5.3,2.4,5.3,5.3c0,2.8-2.1,5.1-4.8,5.3v18.7     c1.1,1.7,13,19.4,23.3,29.3c11.1,10.6-17.6,87.3-18.9,90.5L1322.8,884.4z M1282.8,883.4h39.3c2.1-5.5,29.3-79.3,19-89.1     c-10.9-10.4-23.4-29.4-23.6-29.6l-0.1-0.1v-20h0.5c2.4,0,4.3-1.9,4.3-4.3s-1.9-4.3-4.3-4.3h-31c-2.4,0-4.3,1.9-4.3,4.3     s1.9,4.3,4.3,4.3h0.5v20l-0.1,0.1c-0.1,0.2-12.7,19.2-23.6,29.6C1253.5,804.1,1280.7,877.8,1282.8,883.4z"/>
		</g>
		<polygon id="XMLID_240_" points="1279.7,712.1 1289.7,762.4 1304.7,762.4 1318,712.1   "/>
		<path id="XMLID_243_" class="st6" d="M1334.9,794.4c-11-10.5-23.5-29.5-23.5-29.5v-19.3c2.7,0,4.8-2.2,4.8-4.8s-2.2-4.8-4.8-4.8    h-31c-2.7,0-4.8,2.2-4.8,4.8s2.2,4.8,4.8,4.8v19.3c0,0-12.5,19-23.5,29.5s19,90,19,90h20h20    C1315.9,884.4,1345.9,804.9,1334.9,794.4z"/>
		<polygon id="XMLID_241_" class="st7" points="1267,804.4 1324,804.4 1314,866.4 1275.7,865.1   "/>
		<g id="XMLID_244_">
			<path id="XMLID_250_" d="M1308.4,860.1l-0.4,0l-38.8-1.3l-8.8-61.7h58.2L1308.4,860.1z M1270.1,857.8l37.5,1.3l9.8-61h-55.8     L1270.1,857.8z"/>
		</g>
	</g>
	<g id="XMLID_255_">
		<rect id="XMLID_265_" x="1203.5" y="840.8" class="st0" width="30.8" height="43.5"/>
		<rect id="XMLID_254_" x="1203.5" y="831.4" width="30.8" height="9.4"/>
		<path id="XMLID_263_" class="st8" d="M1234.3,844.7v39.7h-30.8v-25.3c6.2-0.6,13.7-2.4,18.1-7.6    C1226.4,845.8,1231.2,844.6,1234.3,844.7z"/>
		<rect id="XMLID_253_" x="1210.9" y="847.2" width="16" height="28.7"/>
	</g>
	<g id="XMLID_258_">
		
			<rect id="XMLID_256_" x="1128.6" y="792.5" transform="matrix(0.8502 0.5264 -0.5264 0.8502 612.3212 -481.0345)" class="st9" width="46" height="86.3"/>
		<polygon id="XMLID_260_" points="1194.6,747 1179.4,747 1154.7,786.8 1164.1,792.6 1187.8,754.3 1194.6,754.3   "/>
		<g id="XMLID_257_">
			<polygon id="XMLID_259_" points="1147.8,881.4 1147,880.9 1185.7,817.1 1158.7,795.6 1159.4,794.8 1187,816.9 1186.8,817.3         "/>
		</g>
	</g>
	<path id="XMLID_95_" class="st0" d="M886,770.4c1.8-3.6,5.3-6.1,9.3-6.8c37.4-6.1,42.4-11.8,50.6,4.3c8.6,17,31.2-1.6,35.2,13   c3.9,14.6,32.2,56.2-9.7,58.6c-41.9,2.4-36.1,43.6-60.1,17.5c-24-26.1-16.4-48.5-28.8-54.6C873.4,798.1,881.2,779.9,886,770.4z"/>
	
		<ellipse id="XMLID_83_" transform="matrix(0.8999 0.436 -0.436 0.8999 446.9142 -325.8517)" class="st10" cx="933.4" cy="810.8" rx="22" ry="31.7"/>
	<g id="XMLID_96_">
		<path id="XMLID_107_" class="st10" d="M917.4,838.5c-2.6,0-5-0.5-7.3-1.6c-5.4-2.6-9.1-8.1-10.2-15.5c-1.1-7.3,0.3-15.6,4-23.3    c7.7-16,23.1-24.5,34.3-19.1c11.2,5.4,14,22.8,6.2,38.7c-3.7,7.7-9.3,13.9-15.8,17.6C924.9,837.4,921,838.5,917.4,838.5z     M931,778.3c-9.5,0-20.2,7.8-26.2,20.2c-3.7,7.5-5,15.6-3.9,22.7c1.1,7.1,4.6,12.3,9.7,14.8c5.2,2.5,11.4,1.9,17.6-1.5    c6.3-3.5,11.7-9.6,15.4-17.2l0,0c7.5-15.5,4.9-32.3-5.8-37.5C935.7,778.8,933.3,778.3,931,778.3z"/>
	</g>
	<g id="XMLID_97_">
		<path id="XMLID_110_" d="M917,855.8c-0.3,0-0.5,0-0.8,0c-7.1-0.3-13.8-4.7-19.8-13.1l0-0.1l-12.8-29.7c0-0.1-2.5-10-10.9-10.9    c-1.6-0.2-3.5-1.5-3.8-7.2c-0.7-12.3,6.7-36,15-37.8c2.4-0.5,6.8-2,11.9-3.7c17.7-5.9,44.5-14.8,48.6-5.3c1,2.4,1.9,4.8,2.8,7.1    c3.4,9.3,6.3,17.3,16.1,15.4c7.4-1.4,16.3,3.3,19.9,10.4c2.3,4.5,4.3,13.6-7.7,24.7c-4.6,4.3-9.6,10.2-15,16.5    C947.3,837.9,932.2,855.8,917,855.8z M897.2,842.2c5.9,8.2,12.1,12.4,19.1,12.7c15,0.6,30.3-17.4,43.7-33.3    c5.4-6.3,10.4-12.3,15.1-16.6c11.5-10.7,9.6-19.4,7.5-23.6c-3.4-6.7-12-11.2-18.9-9.9c-10.6,2-13.8-6.7-17.2-16    c-0.8-2.3-1.7-4.7-2.7-7c-3.8-8.7-31.2,0.4-47.5,5.8c-5.3,1.8-9.5,3.2-12,3.7c-7.8,1.7-14.9,25.2-14.3,36.9c0.1,2.8,0.8,6.1,3,6.3    c8.7,0.9,11.5,10.8,11.6,11.5L897.2,842.2z"/>
	</g>
	<rect id="XMLID_151_" x="160.9" y="884.4" width="1278.2" height="32.2"/>
	<path id="XMLID_36_" class="st11" d="M618.5,446.2l162.6,70.5l131,20c0,0,90.1,91.1-28.2,128.4l-114.7-11.2L618.5,446.2z"/>
	<path id="XMLID_35_" class="st0" d="M426.7,428.9l-90.2,66c0,0-113.4,220.3-95.7,389.5h625.1c0,0-114.7-409.8-260.9-442.2   S426.7,428.9,426.7,428.9z"/>
	<path id="XMLID_72_" class="st12" d="M533.6,535.8c-160.1,14.6-113.8-161.1-52.8-199.3l83.3,31.1l28.7,10.7l0.6,1.5l18.5,44.9   c0,0,11.7,13.8,17.6,31.7c0.2,0.5,0.4,1.1,0.5,1.7C638.9,487.6,631.4,527,533.6,535.8z"/>
	<path id="XMLID_53_" class="st13" d="M630,458.2l-52.8-19.1l-22.5-67l38.7,7.9l18.5,44.9c0,0,11.7,13.8,17.6,31.7   C629.7,457.1,629.8,457.7,630,458.2z"/>
	<path id="XMLID_92_" class="st14" d="M669.8,577.8c-4.6,1.1-9.6,2.1-15.1,2.9c-25.4,3.9-50.8,6.7-75.2,8.3   c-105.1,6.7-191.3-10.2-175-68.6c20-71.9,16.4-113.8,47.3-109.2c0,0,16.4-7.3,13.6,10.9c-2.7,18.2,8.1,64.6,63.2,38.2   c11.1-5.3,20.6-9.8,28.9-13.5c0.2-0.1,0.3-0.1,0.5-0.2c32.5-14.2,46.5-15.4,66.3-2.5C648.2,459.6,778.1,552,669.8,577.8z"/>
	<path id="XMLID_40_" d="M917.5,542.7c0,0-116.4-24.6-92.1,116.7l67.3,3L917.5,542.7z"/>
	<path id="XMLID_38_" class="st13" d="M846.5,583.5c0,0-23.5,24.6-9.8,86.5c0,0,27.3,16.7,34.6-16.2   C878.5,620.9,846.5,583.5,846.5,583.5z"/>
	<path id="XMLID_44_" class="st11" d="M386.8,628.9c0,0,115.8,19.6,182.3,260.3H452L386.8,628.9z"/>
	<path id="XMLID_42_" class="st0" d="M336.5,494.9c0,0-94,32.2-112.5,117.8c-2,9.1-4.2,18.2-6.6,27.2   c-12.1,44.7-30.8,183.6,207,180.9l27.7-74.2l-65.1-117.6C386.8,628.9,419.8,508,336.5,494.9z"/>
	<rect id="XMLID_43_" x="341.5" y="825.9" width="383.5" height="27.3"/>
	<path id="XMLID_125_" class="st12" d="M569.1,826h-24.6l19.9,51.2l4.7,12.1c-1.8,50.3-33.7,26.2-33.7,26.2   c-39.4,25.9-64.8,24.3-81.2,11.3c-22.1-17.4-27.9-55.2-29.4-73.6c-0.5-6.5-0.5-10.6-0.5-10.6v-21.8l27.7-74.2l55.3,35.9   C574.2,777.5,569.1,826,569.1,826z"/>
	<polygon id="XMLID_45_" class="st15" points="542.6,384.4 542.6,398.8 491.7,386.7 495.8,377.9  "/>
	<polygon id="XMLID_47_" class="st14" points="566.9,389.3 566.9,398.8 600.7,390.8 598,384.9  "/>
	<path id="XMLID_49_" class="st14" d="M451.4,382.8c0,0,24.4-31.9,51.7-36c0,0-8.6-43.2-59.6,9.2L451.4,382.8z"/>
	<path id="XMLID_39_" class="st0" d="M695.6,302.9c0,0,15.6,119.4-90.5,58.2l-11.4,19.5c-3.9,0.4-8.1,0.3-12.5-0.3   c-24-2.7-54.5-16.9-76.9-29.1c0,0,0,0,0,0c-18.1-9.8-31-18.3-31-18.3c8.8-21,18.4-31.3,25.9-36.5c7.9-5.5,13.6-5,13.6-5   s-81-63.2-28.2-91.5c52.8-28.2,119.7-33.7,134,20.9C618.5,221,741.1,226.4,695.6,302.9z"/>
	<g id="XMLID_50_">
		<path id="XMLID_84_" d="M619.4,884.5l-1.8-0.1c7.3-89-14.6-156.6-34.2-197.7c-21.3-44.4-44.6-68.1-44.8-68.3l-0.9-0.9l73.1-34.7    l0.8,1.6l-70.8,33.6c4.5,4.8,25.2,28.1,44.3,67.9C604.8,727.1,626.8,795,619.4,884.5z"/>
	</g>
	<g id="XMLID_51_">
		<path id="XMLID_46_" d="M454.9,741.4l-62-112.2l0-0.2c-2.5-92.1-24.2-126.4-42-139c-15.5-10.9-29.5-6.6-29.7-6.6l-0.6-1.7    c0.6-0.2,15.1-4.7,31.3,6.8c18.1,12.8,40.2,47.5,42.7,140.2l61.8,111.8L454.9,741.4z"/>
	</g>
	<g id="XMLID_52_">
		<path id="XMLID_7_" d="M419.3,830.9c-63.5-0.6-112.4-19.9-142.3-36c-32.4-17.4-50-34.9-50.2-35.1l1.5-1.5    c0.2,0.2,17.6,17.5,49.7,34.8c29.6,15.9,78.2,35,141.2,35.7L419.3,830.9z"/>
	</g>
	
		<ellipse id="XMLID_54_" transform="matrix(0.906 -0.4233 0.4233 0.906 -223.5356 317.0681)" cx="602" cy="661.8" rx="9.3" ry="18.2"/>
	
		<ellipse id="XMLID_56_" transform="matrix(0.9679 -0.2511 0.2511 0.9679 -168.3663 184.19)" cx="637.5" cy="751.7" rx="9.3" ry="18.2"/>
	
		<ellipse id="XMLID_57_" transform="matrix(0.9909 -0.1349 0.1349 0.9909 -109.8693 96.5676)" cx="657.6" cy="859" rx="9.3" ry="18.2"/>
	
		<ellipse id="XMLID_58_" transform="matrix(0.9572 -0.2893 0.2893 0.9572 -159.3502 222.8101)" cx="673.9" cy="650.4" rx="6.6" ry="18.2"/>
	
		<ellipse id="XMLID_59_" transform="matrix(0.9875 -0.1578 0.1578 0.9875 -108.0318 120.9891)" cx="708.1" cy="740.9" rx="6.6" ry="18.2"/>
	<polygon id="XMLID_62_" class="st16" points="539.1,398 528.5,412 494.6,398 494.6,387.2  "/>
	<polygon id="XMLID_63_" class="st17" points="571.2,397.8 573.7,407.6 600.7,397.7 598.1,391.4  "/>
	<g id="XMLID_65_">
		
			<rect id="XMLID_88_" x="498.4" y="397.1" transform="matrix(0.9389 0.3443 -0.3443 0.9389 168.2215 -152.268)" class="st3" width="29.1" height="0.9"/>
	</g>
	<g id="XMLID_66_">
		
			<rect id="XMLID_89_" x="585.5" y="388.9" transform="matrix(0.3212 0.947 -0.947 0.3212 774.7484 -284.6411)" class="st3" width="0.9" height="18.4"/>
	</g>
	<path id="XMLID_64_" class="st17" d="M569.7,416.8c0,0,30.7-6.6,7.5,22.3L569.7,416.8z"/>
	<path id="XMLID_74_" class="st13" d="M569.1,889.3c-1.8,50.3-33.7,26.2-33.7,26.2c-39.4,25.9-64.8,24.3-81.2,11.3   c23.6-0.5,42.6-32.1,42.6-32.1c38.4,13.1,59.1-6,67.7-17.6L569.1,889.3z"/>
	<path id="XMLID_70_" d="M1017.4,531.3l-13.1-12.7c-5.4-5.2-15.6-2.8-22.6,5.3L731,814.1c-6.8,7.9-7.9,18.2-2.5,23   c5.2,4.6,14.5,2.5,21.4-4.6L1013.7,555C1021.1,547.3,1022.7,536.5,1017.4,531.3z M984.1,560.6l-6.4-6.4l14.7-25.8l14.4,14.1   L984.1,560.6z"/>
	<path id="XMLID_37_" class="st12" d="M909.9,542.7c0,0,104.2,34.1,65.1,96.5c-8.6,3.2-3.2,25.5-22.7,33.7   c-19.6,8.2-29.1,9.1-29.1,9.1s-11.4,47.3-40.5,18.7c-29.1-28.7-47.3-86-36.4-96S816.2,552.7,909.9,542.7z"/>
	<path id="XMLID_24_" class="st8" d="M703.2,813.4c0,0-17.6-4.9-15.5-14.6c2.1-9.7,7.3-18.5,7.3-18.5s7.3-8.8,8.2,7.3   c0.9,16.1,8.4-16.4,11.9-16.7s27.5-11.6,25.1,11.8s16.4-1.5,15.8,15.5s-14.3,27.7-14.3,27.7L703.2,813.4z"/>
	<g id="XMLID_67_">
		<path id="XMLID_114_" d="M741.9,820.6l-38.7-12.6c-0.9-0.2-18-5.1-15.8-15.1c2.1-9.7,7.3-18.5,7.3-18.6c0.2-0.2,2.8-3.3,5.3-2.5    c2.2,0.7,3.4,4,3.7,10c0.2,3.8,0.8,4,0.8,4c0.9,0,3.2-5.9,4.7-9.8c2.6-6.9,4.4-11.2,6-11.3c0.5,0,1.5-0.3,2.8-0.7    c5-1.5,14.2-4.2,19.3,0c2.9,2.4,4.1,6.8,3.4,13c-0.5,5.2-0.1,8.3,1.4,9.5c1.4,1.2,3.9,0.5,6.2-0.2c2.4-0.7,4.9-1.4,6.5-0.1    c1.3,1,1.8,3,1.7,6.2c-0.6,17-14.3,27.9-14.4,28L741.9,820.6z M699.1,772.6c-1.8,0-3.6,2.2-3.7,2.2c0,0-5.1,8.8-7.2,18.3    c-2,9.2,15,14,15.1,14l0,0l38.3,12.4c1.6-1.4,13.3-11.7,13.9-27.2c0.1-2.9-0.3-4.6-1.3-5.4c-1.3-1-3.4-0.4-5.7,0.3    c-2.6,0.7-5.2,1.5-7,0c-1.8-1.5-2.3-4.8-1.7-10.3c0.6-5.9-0.4-10-3.1-12.2c-4.8-4-13.7-1.3-18.5,0.1c-1.4,0.4-2.4,0.7-3,0.8    c-1.2,0.1-3.6,6.5-5.2,10.7c-2.8,7.4-4.2,10.6-5.7,10.4c-0.9-0.1-1.4-1.6-1.6-4.9c-0.4-6.8-1.9-8.8-3.1-9.2    C699.5,772.7,699.3,772.6,699.1,772.6z"/>
	</g>
	<path id="XMLID_71_" class="st6" d="M796.7,842.4c0,0-57.3-65.1-19.1-68.7c38.2-3.6,4.5,26.4,60.1,53.2L796.7,842.4z"/>
	<polygon id="XMLID_41_" points="632.8,807.9 707.4,902.5 1020.5,902.5 1073.2,825.9  "/>
	<g id="XMLID_78_">
		<path id="XMLID_113_" class="st0" d="M811.6,813.1c-0.1-0.1-9.2-10.7-17.8-27.2c-2.1-4.1-4.9-6.5-8.4-7c-7.7-1.2-16.1,7-16.2,7.1    l-0.6-0.6c0.4-0.4,8.8-8.7,17-7.4c3.7,0.6,6.8,3.1,9.1,7.5c8.5,16.4,17.5,26.9,17.6,27L811.6,813.1z"/>
	</g>
	
		<ellipse id="XMLID_79_" transform="matrix(-0.8595 -0.5112 0.5112 -0.8595 1135.5415 1883.3037)" class="st8" cx="826.6" cy="785.6" rx="5.1" ry="13.8"/>
	
		<ellipse id="XMLID_80_" transform="matrix(0.8495 -0.5275 0.5275 0.8495 -279.239 498.1947)" class="st8" cx="733.7" cy="738.6" rx="3.6" ry="13.1"/>
	
		<ellipse id="XMLID_81_" transform="matrix(0.8276 -0.5614 0.5614 0.8276 -321.5757 508.4631)" class="st8" cx="666.8" cy="777.7" rx="3.6" ry="13.5"/>
	
		<ellipse id="XMLID_82_" transform="matrix(0.9213 0.3888 -0.3888 0.9213 346.2225 -211.2203)" class="st8" cx="695.1" cy="749.9" rx="3.6" ry="13.5"/>
	<g id="XMLID_90_">
		<path id="XMLID_91_" class="st3" d="M577.4,433.7l-0.7-0.6c5.2-5.7,7.1-10,5.6-12.8c-2.6-5-15.3-3.7-15.4-3.7l-0.1-0.9    c0.5-0.1,13.5-1.4,16.3,4.2C584.8,423,582.9,427.6,577.4,433.7z"/>
	</g>
	<path id="XMLID_98_" class="st10" d="M1023.2,804.3c0.7-1,64.9-73.4,40.6-39.7C1039.6,798.3,1003.9,833.4,1023.2,804.3z"/>
	<path id="XMLID_99_" class="st10" d="M1025,807.5c0.8-0.7,68.6-43.5,40.8-22.1C1038.1,806.9,1002.2,826.5,1025,807.5z"/>
	<ellipse id="XMLID_100_" class="st10" cx="1019.1" cy="778.9" rx="1.4" ry="27.3"/>
	
		<ellipse id="XMLID_101_" transform="matrix(-0.9449 -0.3274 0.3274 -0.9449 1749.0138 1853.3688)" class="st0" cx="1030.5" cy="779.5" rx="2.4" ry="18.5"/>
	<ellipse id="XMLID_102_" class="st0" cx="1044.7" cy="815.6" rx="6.6" ry="1.4"/>
	
		<ellipse id="XMLID_103_" transform="matrix(0.9357 0.3528 -0.3528 0.9357 351.545 -321.3412)" class="st0" cx="1057.4" cy="803.9" rx="0.9" ry="4"/>
	
		<ellipse id="XMLID_104_" transform="matrix(0.8377 -0.5462 0.5462 0.8377 -275.9868 679.1484)" class="st0" cx="1004.6" cy="803.9" rx="1.1" ry="3.6"/>
	
		<ellipse id="XMLID_105_" transform="matrix(0.9276 -0.3737 0.3737 0.9276 -214.6493 431.0656)" class="st0" cx="1004.6" cy="769.2" rx="1.7" ry="7.2"/>
	<g id="XMLID_106_">
		<path id="XMLID_77_" class="st0" d="M703.5,877.5l-0.1-0.2L660,819.1l381.2,18.9l-23.2,35.3l-0.2,0L703.5,877.5z M661.9,820.1    l42.1,56.5l313.6-4.2l22.1-33.5L661.9,820.1z"/>
	</g>
	<polygon id="XMLID_123_" class="st13" points="452,746.5 424.3,839.7 424.3,820.8  "/>
	<g id="XMLID_73_">
		<path id="XMLID_124_" d="M607.6,675c-4.7,0-10.7-5.3-14.4-13.3c-4.4-9.3-3.9-18.8,0.9-21c4.9-2.3,12.4,3.5,16.7,12.8l0,0    c4.4,9.3,3.9,18.8-0.9,21C609.2,674.8,608.4,675,607.6,675z M596.5,641.1c-0.7,0-1.4,0.1-2,0.4c-4.4,2.1-4.6,10.9-0.5,19.8    c4.1,8.9,11.1,14.4,15.5,12.3c4.4-2.1,4.6-10.9,0.5-19.8C606.5,646.2,600.9,641.1,596.5,641.1z"/>
	</g>
	<g id="XMLID_119_">
		<path id="XMLID_128_" d="M680.5,665.5c-1.7,0-3.7-1.4-5.7-4c-2.2-3-4.2-7.2-5.6-11.9c-3-10-2.4-18.8,1.4-19.9    c1.9-0.6,4.2,0.8,6.5,3.9c2.2,3,4.2,7.2,5.6,11.9c3,10,2.4,18.8-1.4,19.9C681.1,665.5,680.8,665.5,680.5,665.5z M671.4,630.4    c-0.2,0-0.4,0-0.6,0.1c-3.2,1-3.5,9.6-0.8,18.8c1.4,4.6,3.3,8.7,5.5,11.6c2,2.7,4,4,5.5,3.6c3.2-1,3.5-9.6,0.8-18.8    c-1.4-4.6-3.3-8.7-5.5-11.6C674.6,631.7,672.8,630.4,671.4,630.4z"/>
	</g>
	<g id="XMLID_120_">
		<path id="XMLID_135_" d="M642.5,766.7c-4.9,0-10.4-6.6-12.8-15.8c-1.2-4.8-1.5-9.5-0.6-13.4c0.9-3.9,2.8-6.5,5.3-7.2    c5.2-1.3,11.5,5.7,14.1,15.6l0,0c1.2,4.8,1.5,9.5,0.6,13.4c-0.9,3.9-2.8,6.5-5.3,7.2C643.3,766.7,642.9,766.7,642.5,766.7z     M635.8,731.2c-0.4,0-0.8,0-1.1,0.1c-2.2,0.6-3.9,2.9-4.7,6.5c-0.8,3.7-0.6,8.3,0.6,12.9c2.5,9.5,8.3,16.2,13,15    c2.2-0.6,3.9-2.9,4.7-6.5c0.8-3.7,0.6-8.3-0.6-12.9l0,0C645.4,737.6,640.2,731.2,635.8,731.2z"/>
	</g>
	<g id="XMLID_121_">
		<path id="XMLID_138_" d="M712.6,758c-3.8,0-7.9-7.4-9.5-17.3c-0.8-4.9-0.8-9.5-0.1-13.2c0.7-3.8,2.2-6.1,4.2-6.4    c2-0.3,4.1,1.4,5.9,4.8c1.8,3.2,3.2,7.7,4,12.6c1.7,10.3-0.1,18.9-4,19.5C712.9,758,712.8,758,712.6,758z M707.7,722    c-0.1,0-0.2,0-0.3,0c-1.5,0.2-2.8,2.3-3.4,5.6c-0.7,3.5-0.6,8.1,0.1,12.9c1.5,9.5,5.6,17.1,8.9,16.6c3.3-0.5,4.8-9,3.3-18.5    c-0.8-4.7-2.1-9.1-3.9-12.3C710.8,723.5,709.1,722,707.7,722z"/>
	</g>
	<g id="XMLID_122_">
		<path id="XMLID_132_" d="M663.7,876.2c-2.4,0-4.8-1.6-6.9-4.6c-2.2-3.2-3.8-7.7-4.5-12.6c-0.7-4.9-0.3-9.6,1-13.3    c1.3-3.8,3.5-6.1,6.2-6.5c2.6-0.4,5.4,1.3,7.7,4.6c2.2,3.2,3.8,7.7,4.5,12.6l0,0c0.7,4.9,0.3,9.6-1,13.3c-1.3,3.8-3.5,6.1-6.2,6.5    C664.1,876.2,663.9,876.2,663.7,876.2z M660.1,840c-0.2,0-0.4,0-0.6,0c-2.3,0.3-4.2,2.4-5.4,5.9c-1.3,3.6-1.6,8.2-0.9,12.9    c0.6,4.7,2.2,9.1,4.4,12.2c2.1,3,4.5,4.5,6.8,4.2c2.3-0.3,4.2-2.4,5.4-5.9c1.3-3.6,1.6-8.2,0.9-12.9l0,0    c-0.6-4.7-2.2-9.1-4.4-12.2C664.3,841.5,662.2,840,660.1,840z"/>
	</g>
	<path id="XMLID_75_" class="st15" d="M669.8,577.8c-4.6,1.1-9.6,2.1-15.1,2.9c-25.4,3.9-50.8,6.7-75.2,8.3   c-105.1,6.7-191.3-10.2-175-68.6c20-71.9,16.4-113.8,47.3-109.2c0,0,16.4-7.3,13.6,10.9c-2.7,18.2,8.1,64.6,63.2,38.2   c11.1-5.3,20.6-9.8,28.9-13.5c0.2-0.1,0.3-0.1,0.5-0.2C604,461.9,672.1,498.2,669.8,577.8z"/>
	<path id="XMLID_3_" class="st12" d="M451.7,411.2c0,0,5.5-101.9-35.5-49.1S423.5,454.8,451.7,411.2z"/>
	<path id="XMLID_61_" class="st18" d="M443.4,382.8c0,0-9.6-47.3-32.3,2.1s34.6,16.2,34.6,16.2l-25.9-6.8L443.4,382.8z"/>
	<path id="XMLID_11_" class="st9" d="M512.7,291.5c0,0,11.9,13.3,23.5,24.3S528.6,327.5,512.7,291.5z"/>
	<path id="XMLID_15_" class="st9" d="M552.4,318.5c-12-15.1-12.2,6.8,18.8,26.9c-19,9.8-66.1,5.9-67,5.8   c22.5,12.2,53,26.4,76.9,29.1c4.4,0.5,8.6,0.6,12.5,0.3l11.4-19.5C605,361.1,567.8,337.8,552.4,318.5z"/>
	<path id="XMLID_12_" class="st9" d="M676,305.5c0.4-0.6,1.3-0.4,1.4,0.3c1.8,11.9,8.5,72.6-49.7,47c-64.3-28.3-106-91.7-105.3-100   C523.1,244.5,631.7,375.7,676,305.5z"/>
	<polygon id="XMLID_8_" class="st19" points="183.8,916.6 183.8,935.9 1406.3,962.9 1406.3,916.6  "/>
	<polygon id="XMLID_20_" class="st1" points="183.8,935.9 183.8,955.4 1406.3,998.9 1406.3,962.9  "/>
	<polygon id="XMLID_28_" class="st4" points="183.8,955.4 183.8,998.9 1406.3,998.9  "/>
	<g id="XMLID_31_">
		
			<rect id="XMLID_60_" x="387.2" y="957.6" transform="matrix(9.612803e-002 0.9954 -0.9954 9.612803e-002 1340.687 439.7134)" width="82" height="1"/>
	</g>
	<g id="XMLID_32_">
		
			<rect id="XMLID_76_" x="1055.9" y="957.2" transform="matrix(0.1265 0.992 -0.992 0.1265 1908.5566 -252.0318)" width="83" height="1"/>
	</g>
	<g id="XMLID_33_">
		<rect id="XMLID_27_" x="160.9" y="1018.3" width="1278.2" height="5"/>
	</g>
</g>
</svg>
